<?xml version="1.0" encoding="UTF-8" standalone="no"?>
<!-- Created with Inkscape (http://www.inkscape.org/) -->

<svg
   xmlns:dc="http://purl.org/dc/elements/1.1/"
   xmlns:cc="http://creativecommons.org/ns#"
   xmlns:rdf="http://www.w3.org/1999/02/22-rdf-syntax-ns#"
   xmlns:svg="http://www.w3.org/2000/svg"
   xmlns="http://www.w3.org/2000/svg"
   xmlns:sodipodi="http://sodipodi.sourceforge.net/DTD/sodipodi-0.dtd"
   xmlns:inkscape="http://www.inkscape.org/namespaces/inkscape"
   width="512"
   height="512"
   viewBox="0 0 512.00001 512.00001"
   id="svg2"
   version="1.1"
   inkscape:version="0.91 r13725"
   sodipodi:docname="sintesi_temp_vento.svg"
   inkscape:export-filename="C:\Users\d.fiori\Downloads\omirl\temperaturaOff.png"
   inkscape:export-xdpi="5.6300001"
   inkscape:export-ydpi="5.6300001">
  <defs
     id="defs4">
    <inkscape:path-effect
       effect="spiro"
       id="path-effect5400"
       is_visible="true" />
    <inkscape:path-effect
       effect="spiro"
       id="path-effect5363"
       is_visible="true" />
  </defs>
  <sodipodi:namedview
     id="base"
     pagecolor="#ffffff"
     bordercolor="#666666"
     borderopacity="1.0"
     inkscape:pageopacity="0.0"
     inkscape:pageshadow="2"
     inkscape:zoom="0.98994949"
     inkscape:cx="207.72467"
     inkscape:cy="218.81739"
     inkscape:document-units="px"
     inkscape:current-layer="layer1"
     showgrid="false"
     showguides="true"
     inkscape:guide-bbox="true"
     units="px"
     inkscape:window-width="1280"
     inkscape:window-height="961"
     inkscape:window-x="1272"
     inkscape:window-y="-8"
     inkscape:window-maximized="1">
    <sodipodi:guide
       position="229.55357,849.46431"
       orientation="0,1"
       id="guide4170" />
    <sodipodi:guide
       position="230.58036,829.10716"
       orientation="0,1"
       id="guide4172" />
    <inkscape:grid
       type="xygrid"
       id="grid4246" />
    <sodipodi:guide
       position="256.02679,751.69645"
       orientation="1,0"
       id="guide4248" />
    <sodipodi:guide
       position="-13.131983,256"
       orientation="0,1"
       id="guide4284"
       inkscape:label=""
       inkscape:color="rgb(0,0,255)" />
  </sodipodi:namedview>
  <metadata
     id="metadata7">
    <rdf:RDF>
      <cc:Work
         rdf:about="">
        <dc:format>image/svg+xml</dc:format>
        <dc:type
           rdf:resource="http://purl.org/dc/dcmitype/StillImage" />
        <dc:title></dc:title>
      </cc:Work>
    </rdf:RDF>
  </metadata>
  <g
     inkscape:label="Livello 1"
     inkscape:groupmode="layer"
     id="layer1"
     transform="translate(0,-540.36216)">
    <path
       style="fill:none;fill-rule:evenodd;stroke:#000000;stroke-width:14.35656548;stroke-linecap:butt;stroke-linejoin:miter;stroke-miterlimit:4;stroke-dasharray:none;stroke-opacity:1"
       d="m 98.447068,632.14589 c -21.532137,-0.004 -38.988347,15.72502 -38.984803,35.12572 0.007,1.02866 0.07562,191.92586 0.182274,204.45809 -13.488662,10.27466 -21.277759,25.37556 -21.297578,41.29014 -0.0016,29.90712 26.906949,54.15202 60.099827,54.15053 33.187412,-0.009 60.087422,-24.24834 60.085822,-54.15053 2e-4,-15.93024 -7.78514,-31.05233 -21.28358,-41.34081 0.10735,-11.689 0.16335,-203.37522 0.16864,-204.40742 0.004,-19.39571 -17.44403,-35.12189 -38.970751,-35.12572 z"
       id="path3351"
       inkscape:connector-curvature="0"
       sodipodi:nodetypes="cccccccccc" />
    <rect
       style="fill:none"
       id="rect4174"
       width="90.714432"
       height="118.65623"
       x="57.249565"
       y="730.43988" />
    <path
       style="fill:#000000;fill-opacity:1;stroke:none;stroke-width:1.37219107;stroke-miterlimit:4;stroke-dasharray:none;stroke-opacity:1"
       d="m 92.603523,776.06329 0,115.07494 a 27.795438,25.043968 0 0 0 -20.205652,24.08759 27.795438,25.043968 0 0 0 27.797459,25.04583 27.795438,25.043968 0 0 0 27.79747,-25.04583 27.795438,25.043968 0 0 0 -20.54527,-24.1408 l 0,-115.02173 -14.844007,0 z"
       id="path4204"
       inkscape:connector-curvature="0" />
    <rect
       style="fill:#000000;fill-opacity:1;stroke:none;stroke-width:1;stroke-miterlimit:4;stroke-dasharray:none;stroke-opacity:1"
       id="rect4209"
       width="47.020481"
       height="14.121974"
       x="160.37764"
       y="724.84753" />
    <rect
       style="fill:#000000;fill-opacity:1;stroke:none;stroke-width:1;stroke-miterlimit:4;stroke-dasharray:none;stroke-opacity:1"
       id="rect4209-8"
       width="47.020481"
       height="14.121974"
       x="161.21703"
       y="764.17206" />
    <rect
       style="fill:#000000;fill-opacity:1;stroke:none;stroke-width:1;stroke-miterlimit:4;stroke-dasharray:none;stroke-opacity:1"
       id="rect4209-1"
       width="47.020481"
       height="14.121974"
       x="160.31995"
       y="804.73511" />
    <rect
       style="fill:#000000;fill-opacity:1;stroke:none;stroke-width:1;stroke-miterlimit:4;stroke-dasharray:none;stroke-opacity:1"
       id="rect4209-8-4"
       width="47.020481"
       height="14.121974"
       x="161.15933"
       y="844.05969" />
    <path
       style="fill:#000000"
       d="m 266.64516,832.22696 0,-57.05941 -5.38115,-11.12362 -5.38103,-11.12352 8.23297,-9.10825 8.23304,-9.10829 7.06784,3.00053 7.06778,3.00049 6.91584,-9.21892 c 3.80367,-5.07043 9.04502,-9.21893 11.6474,-9.21893 l 4.7316,0 0,8.21705 0,8.21713 -8.22375,7.55063 -8.22368,7.55057 8.22368,10.05316 c 8.43435,10.31055 11.06285,24.0262 4.60446,24.0262 -1.99061,0 -8.05637,-4.44233 -13.47948,-9.87198 l -9.86017,-9.87198 0,60.57431 0,60.57427 -8.08767,0 -8.08768,0 0,-57.05944 z m 50.81024,-28.46873 c -1.523,-4.39095 -2.05346,-29.19107 -1.17869,-55.11138 l 1.59041,-47.12786 10.7053,-2.26382 10.70528,-2.26384 70.17153,13.59061 70.17149,13.59066 6.73975,5.74252 6.73973,5.7426 0,19.4167 0,19.41664 -6.73973,5.67115 -6.73975,5.6712 -65.58211,12.95414 c -36.07013,7.12475 -71.93432,12.95414 -79.69805,12.95414 l -14.11599,0 -2.76917,-7.98346 z m 35.45835,-48.68381 0,-38.77238 -10.78358,0 -10.7836,0 0,38.77238 0,38.77234 10.7836,0 10.78358,0 0,-38.77234 z m 59.30967,0 0,-26.84243 -10.7836,0 -10.78357,0 0,26.84243 0,26.84237 10.78357,0 10.7836,0 0,-26.84237 z m 53.91783,0 0,-14.91246 -10.78355,0 -10.78358,0 0,14.91246 0,14.91244 10.78358,0 10.78355,0 0,-14.91244 z"
       id="path5447"
       inkscape:connector-curvature="0" />
  </g>
</svg>
