<?xml version="1.0" encoding="utf-8"?>
<!-- Generator: Adobe Illustrator 17.1.0, SVG Export Plug-In . SVG Version: 6.00 Build 0)  -->
<!DOCTYPE svg PUBLIC "-//W3C//DTD SVG 1.1//EN" "http://www.w3.org/Graphics/SVG/1.1/DTD/svg11.dtd">
<svg version="1.1" id="svg2" xmlns="http://www.w3.org/2000/svg" xmlns:xlink="http://www.w3.org/1999/xlink" x="0px" y="0px"
	 viewBox="0 0 58.4 73.4" enable-background="new 0 0 58.4 73.4" xml:space="preserve">
<g id="layer3" transform="translate(-329.10522,-510.69809)" inkscape:label="pallozzo_piccolo" inkscape:groupmode="layer">
	<rect id="rect3149" x="329.5" y="511.1" fill="#FFFFFF" stroke="#0D7034" stroke-width="0.8" width="57.6" height="57.6"/>
	
		<path id="path2578" sodipodi:cy="519.81757" sodipodi:rx="27.723215" sodipodi:ry="27.723215" sodipodi:type="arc" sodipodi:cx="305.66965" fill="#0D7034" d="
		M386.3,539.8c0,15.5-12.6,28-28,28c-15.5,0-28-12.6-28-28s12.6-28,28-28C373.8,511.8,386.3,524.3,386.3,539.8L386.3,539.8z"/>
	
		<path id="path2575" sodipodi:cy="518.79077" sodipodi:rx="27.5" sodipodi:ry="27.5" sodipodi:type="arc" sodipodi:cx="304.64285" fill="#0D7034" stroke="#FFFFFF" stroke-width="1.049" stroke-linecap="round" stroke-linejoin="round" d="
		M385.5,539.8c0,14.8-12,26.8-26.8,26.8s-26.8-12-26.8-26.8s12-26.8,26.8-26.8S385.5,525,385.5,539.8z"/>
	
		<path id="path2572" sodipodi:cy="520.79968" sodipodi:rx="23.4375" sodipodi:ry="23.4375" sodipodi:type="arc" sodipodi:cx="307.8125" fill="#527300" fill-opacity="0" stroke="#FFFFFF" stroke-width="1.222" stroke-linecap="round" stroke-linejoin="round" d="
		M384.1,541.8c0,13.3-10.7,24-24,24c-13.3,0-24-10.7-24-24c0-13.3,10.7-24,24-24C373.3,517.8,384.1,528.5,384.1,541.8z"/>
	
		<path id="path2567" sodipodi:cy="528.81903" sodipodi:rx="14.110568" sodipodi:ry="14.110568" sodipodi:type="arc" sodipodi:cx="318.54529" fill="#070F0A" fill-opacity="0" stroke="#FFFFFF" stroke-width="1.5694" stroke-linecap="round" stroke-linejoin="round" d="
		M382.5,545.8c0,9.9-8.1,18-18,18c-9.9,0-18-8.1-18-18c0-9.9,8.1-18,18-18C374.4,527.8,382.5,535.9,382.5,545.8z"/>
	
		<path id="path2541" sodipodi:cy="464.95847" sodipodi:rx="7.8286824" sodipodi:ry="7.8286824" sodipodi:type="arc" sodipodi:cx="327.54196" fill="#527300" fill-opacity="0" stroke="#FFFFFF" stroke-width="4.6139" stroke-linecap="round" stroke-linejoin="round" d="
		M378,553.1c0,3.6-2.9,6.6-6.6,6.6s-6.6-2.9-6.6-6.6s2.9-6.6,6.6-6.6S378,549.5,378,553.1z"/>
	<rect id="rect3149-0" x="329.3" y="568.2" fill="#0D7034" stroke="#0D7034" stroke-width="0.4186" width="58" height="15.7"/>
</g>
<g id="layer8" transform="translate(-329.10522,-510.69809)" inkscape:label="scritta_arpal" inkscape:groupmode="layer">
	<path id="path18-99" inkscape:connector-curvature="0" fill="#FFFFFF" d="M332.6,574.5c-0.9,2.9-1.9,5.7-2.1,6.5l-0.5,1.3h1.8h1.8
		l0.3-1.1l0.3-1.1h2h2l0.3,1.1l0.3,1.1h1.8h1.8l-0.5-1.3c-0.2-0.7-1.2-3.6-2.1-6.5l-1.6-5.1h-2h-2L332.6,574.5L332.6,574.5z
		 M336.9,575l0.6,2.1h-1.2c-0.7,0-1.2-0.1-1.2-0.3c0-0.5,1-4.1,1.1-4C336.3,572.8,336.5,573.8,336.9,575L336.9,575z"/>
	<path id="path20-3" inkscape:connector-curvature="0" fill="#FFFFFF" d="M343.5,575.8v6.5h1.7h1.7v-2.5c0-2.3,0-2.5,0.5-2.5
		c0.7,0,1.1,0.6,2.4,3l1.1,2h1.9h1.9l-1.2-2.2c-0.7-1.2-1.5-2.4-1.8-2.7l-0.6-0.5l0.8-0.4c1.5-0.8,2.2-3,1.5-4.9
		c-0.6-1.7-1.4-2-5.9-2.1l-3.9-0.1L343.5,575.8L343.5,575.8z M349.9,572.7c0.4,0.5,0.3,1.5-0.2,1.9c-0.3,0.1-1,0.3-1.7,0.3h-1.2
		v-1.2v-1.2h1.4C349,572.4,349.8,572.5,349.9,572.7L349.9,572.7z"/>
	<path id="path22-3" inkscape:connector-curvature="0" fill="#FFFFFF" d="M355.8,575.8v6.5h1.7h1.7v-2v-2l1.8-0.1
		c2.3-0.2,3.2-0.7,3.8-2.3c0.6-1.5,0.5-3.6-0.2-4.8c-0.9-1.4-1.8-1.6-5.4-1.6h-3.3V575.8L355.8,575.8z M361.4,572.8
		c0.9,1,0.2,2.3-1.3,2.3h-0.9v-1.4v-1.4h0.9C360.6,572.4,361.2,572.6,361.4,572.8z"/>
	<path id="path24-6" inkscape:connector-curvature="0" fill="#FFFFFF" d="M367,574.5c-0.9,2.9-1.9,5.7-2.1,6.5l-0.5,1.3h1.8h1.8
		l0.3-1.1l0.3-1.1h2h2l0.3,1.1l0.3,1.1h1.8h1.8l-0.5-1.3c-0.2-0.7-1.2-3.6-2.1-6.5l-1.6-5.1h-2h-2L367,574.5L367,574.5z M371.3,575
		l0.6,2.1h-1.2c-0.7,0-1.2-0.1-1.2-0.3c0-0.5,1-4.1,1.1-4C370.7,572.8,371,573.8,371.3,575L371.3,575z"/>
	<path id="path26-6" inkscape:connector-curvature="0" fill="#FFFFFF" d="M377.9,575.8v6.5h4.3h4.3v-1.5v-1.5h-2.6h-2.6v-4.9v-4.9
		h-1.7h-1.7V575.8z"/>
</g>
</svg>
