<?xml version="1.0" encoding="utf-8"?>
<!-- Generator: Adobe Illustrator 17.1.0, SVG Export Plug-In . SVG Version: 6.00 Build 0)  -->
<!DOCTYPE svg PUBLIC "-//W3C//DTD SVG 1.1//EN" "http://www.w3.org/Graphics/SVG/1.1/DTD/svg11.dtd">
<svg version="1.1" id="Livello_1" xmlns="http://www.w3.org/2000/svg" xmlns:xlink="http://www.w3.org/1999/xlink" x="0px" y="0px"
	 viewBox="0 123 137 138" enable-background="new 0 123 137 138" xml:space="preserve">
<g>
	<path d="M68.1,190.6h39.5h0.7v-45.4c-0.1-5.3-7.9-9-18.6-10.9c-6.3-1.2-13.5-1.7-21-1.8c-7.3-0.1-14.7,0.5-21.2,1.5
		c-12.1,1.9-21.1,5.6-21.4,11.1v45.4h0.7h39.5v28c0.6,0.1,1.1,0.3,1.6,0.4L68.1,190.6L68.1,190.6z M27.7,145.3
		c0.4-4.7,8.8-8.1,20.1-9.7c5.3-0.8,11.2-1.4,17.2-1.4c1.3,0,2.6-0.1,3.8-0.1c0.3,0,0.5,0,0.7,0c7,0.1,13.9,0.6,19.9,1.8
		c10,1.8,17.3,5,17.4,9.5v43.8H69.6h-4.5H27.8L27.7,145.3L27.7,145.3z"/>
	<path fill="#FFFFFF" d="M65,134.2c-6,0.1-11.9,0.6-17.2,1.4c-11.3,1.7-19.8,5-20.1,9.7v15.8H65L65,134.2L65,134.2z M48.9,153.4
		l-1.4,3.3l-1.6-3.3l-4.7,0.6l2.9-3.3l-2.8-3.6l4.5,0.5l1.7-3.2l1.5,3.5l4.7-0.5l-2.8,3.2l2.8,3.2L48.9,153.4z"/>
	<path fill="#FFFFFF" d="M106.9,161.1v-15.8c-0.2-4.5-7.4-7.7-17.4-9.5c-5.9-1.1-12.9-1.6-19.9-1.8v27H106.9z M81.4,146.9l4.5,0.5
		l1.7-3.2l1.5,3.5l4.7-0.5l-2.8,3.2l2.8,3.2l-4.8-0.3l-1.4,3.3l-1.6-3.3l-4.8,0.6l2.9-3.3L81.4,146.9z"/>
	<path fill="#FFFFFF" d="M65,165.4H27.7v23.8H65L65,165.4L65,165.4z M48.5,180.5l-1.4,3.3l-1.6-3.3l-4.8,0.6l2.9-3.3l-2.8-3.6
		l4.5,0.5l1.7-3.2l1.5,3.5l4.6-0.5l-2.8,3.2l2.8,3.2L48.5,180.5z"/>
	<path fill="#FFFFFF" d="M69.6,189.1h37.3v-23.7H69.6V189.1z M81.2,173.7l4.5,0.5l1.7-3.2l1.5,3.5l4.6-0.5l-2.8,3.2l2.8,3.2
		l-4.8-0.3l-1.4,3.3l-1.6-3.3l-4.7,0.6l2.9-3.3L81.2,173.7z"/>
	<path fill="#C4C8CB" d="M98,197.9c-1.8,11.9-8.7,19-16.7,21.8c-3.4,1.2-7.1,1.6-10.8,1.3c-3.6-0.4-7-1.5-10.2-3.2
		c-7.1-4.1-12.2-12-11.7-23l-21-1.6c1.1,17.3,10,28.8,21.4,34.5c5.5,2.8,11.6,4.3,17.6,4.5c6.1,0.2,12.2-0.9,17.7-3.3
		c11.4-4.9,20.5-15.3,22.4-31.1L98,197.9z"/>
	<path d="M108.7,196.2h-0.9l-10.6,0.3h-0.6l-0.1,0.6c-1.5,11.6-8.1,18.5-15.8,21.1c-3.2,1.1-6.7,1.5-10,1.2
		c-0.8-0.1-1.7-0.2-2.5-0.4c-0.6-0.1-1.1-0.3-1.6-0.4c-1.9-0.6-3.7-1.3-5.4-2.3c-6.9-3.9-11.8-11.5-11.1-22.3l0.1-0.7h-0.7
		l-22.5-1.8l-0.9-0.1l0.1,0.8c0.9,18.4,10.2,30.5,22.4,36.6c5.7,2.9,12,4.5,18.4,4.6c6.3,0.2,12.6-0.9,18.5-3.4
		c12.2-5.2,21.7-16.3,23.5-33.1L108.7,196.2z M84.5,228.7c-5.6,2.4-11.7,3.5-17.7,3.3c-6-0.2-12.2-1.6-17.6-4.5
		c-11.4-5.8-20.2-17.3-21.4-34.5l20.8,1.7c-0.5,11,4.6,18.9,11.8,22.9c3.2,1.8,6.6,2.9,10.2,3.2s7.2-0.1,10.8-1.3
		c8.1-2.8,15-9.9,16.7-21.8l8.9-0.2C105,213.5,95.9,223.8,84.5,228.7z"/>
	<polygon fill="#93979E" points="53.2,174.4 48.5,174.8 47,171.3 45.4,174.6 40.8,174 43.7,177.7 40.7,181.1 45.6,180.5 47.1,183.7 
		48.5,180.5 53.3,180.8 50.5,177.6 	"/>
	<polygon fill="#93979E" points="53.6,147.3 48.9,147.8 47.4,144.2 45.7,147.5 41.2,147 44.1,150.6 41.2,154 45.9,153.4 47.5,156.8 
		48.9,153.4 53.7,153.7 50.8,150.5 	"/>
	<polygon fill="#93979E" points="86,153.2 87.7,156.6 89.1,153.2 93.8,153.6 90.9,150.5 93.8,147.2 89.1,147.7 87.6,144.1 
		85.9,147.3 81.4,146.9 84.1,150.5 81.3,153.9 	"/>
	<polygon fill="#93979E" points="85.9,180.1 87.5,183.5 88.9,180.1 93.7,180.5 90.8,177.3 93.6,174 88.9,174.6 87.4,171 85.7,174.2 
		81.2,173.7 84,177.4 81.2,180.7 	"/>
	<path fill="#ED1C24" d="M65,189.1h4.5v-23.7h37.3v-4.3H69.6v-27c-0.3,0-0.5,0-0.7,0c-1.3,0-2.6,0-3.8,0.1v26.9H27.7v4.3H65
		L65,189.1L65,189.1z"/>
	<path d="M26.8,250.4c0-0.6-0.1-1.4-0.1-2c-0.1-1.4-0.6-1.9-1.6-2l0,0c1.1-0.2,1.7-1.1,1.7-2.4c0-1.9-1.1-2.6-2.6-2.6h-3.5v10.1h1.6
		v-4.4h1.3c1.1,0,1.5,0.5,1.5,1.6c0,0.7,0,1.3,0.1,1.9c0.1,0.5,0.1,0.7,0.3,0.9h1.8C27.1,251.3,26.9,251,26.8,250.4z M23.7,245.8
		h-1.3v-3.3h1.4c1.1,0,1.5,0.6,1.5,1.6C25.2,245.1,24.7,245.8,23.7,245.8z"/>
	<polygon points="30.1,246.8 33.7,246.8 33.7,245.4 30.1,245.4 30.1,242.6 33.9,242.6 33.9,241.3 28.5,241.3 28.5,251.4 34.1,251.4 
		34.1,250 30.1,250 	"/>
	<path d="M38.3,247.3H40c0,2.2-0.5,3.1-1.7,3.1c-1.1,0-1.6-0.8-1.6-4.1c0-3.2,0.6-4,1.8-4c1.1,0,1.4,0.9,1.4,1.6v0.3h1.5v-0.2
		c0-0.9-0.5-2.9-3-2.9c-2.3,0-3.3,1.6-3.3,5.2c0,3.6,0.7,5.2,3,5.2c1.2,0,1.8-0.5,2.2-1.4l0,0v1.2h1.2V246h-3.2L38.3,247.3
		L38.3,247.3L38.3,247.3z"/>
	<rect x="43" y="241.3" width="1.6" height="10.1"/>
	<path d="M49.4,241.2c-2.3,0-3.3,1.6-3.3,5.2c0,3.6,1,5.2,3.3,5.2c2.3,0,3.3-1.6,3.3-5.2C52.7,242.7,51.7,241.2,49.4,241.2z
		 M49.4,250.3c-0.9,0-1.8-0.6-1.8-4.1c0-3.3,0.7-4,1.8-4c1,0,1.8,0.6,1.8,4C51,249.8,50.3,250.3,49.4,250.3z"/>
	<polygon points="59.1,248.8 59.1,248.8 56.1,241.3 54.2,241.3 54.2,251.4 55.8,251.4 55.8,243.7 55.8,243.7 58.6,251.4 60.7,251.4 
		60.7,241.3 59.1,241.3 	"/>
	<polygon points="64,246.8 67.5,246.8 67.5,245.4 64,245.4 64,242.6 67.8,242.6 67.8,241.3 62.3,241.3 62.3,251.4 67.9,251.4 
		67.9,250 64,250 	"/>
	<polygon points="74.2,241.3 72.5,241.3 72.5,251.4 78.1,251.4 78.1,250 74.2,250 	"/>
	<rect x="79.1" y="241.3" width="1.6" height="10.1"/>
	<path d="M85.3,247.3H87c0,2.2-0.5,3.1-1.7,3.1c-1.1,0-1.6-0.8-1.6-4.1c0-3.2,0.6-4,1.8-4c1.1,0,1.4,0.9,1.4,1.6v0.3h1.5v-0.2
		c0-0.9-0.5-2.9-3-2.9c-2.3,0-3.3,1.6-3.3,5.2c0,3.6,0.7,5.2,3,5.2c1.2,0,1.8-0.5,2.2-1.4l0,0v1.2h1.1V246h-3.2v1.2L85.3,247.3
		L85.3,247.3z"/>
	<path d="M94.5,248.5c0,1.3-0.5,1.8-1.5,1.8s-1.5-0.6-1.5-1.8v-7.2H90v7c0,2.3,1.1,3.2,3.1,3.2c1.9,0,3.1-0.8,3.1-3.2v-7h-1.6
		L94.5,248.5L94.5,248.5z"/>
	<path d="M103.8,250.4c0-0.6-0.1-1.4-0.1-2c-0.1-1.4-0.6-1.9-1.6-2l0,0c1.1-0.2,1.7-1.1,1.7-2.4c0-1.9-1.1-2.6-2.6-2.6h-3.5v10.1
		h1.6v-4.4h1.3c1.1,0,1.5,0.5,1.5,1.6c0,0.7,0,1.3,0.1,1.9c0.1,0.5,0.1,0.7,0.3,0.9h1.8C104,251.3,103.8,251,103.8,250.4z
		 M100.6,245.8h-1.3v-3.3h1.4c1.1,0,1.5,0.6,1.5,1.6C102.2,245.1,101.6,245.8,100.6,245.8z"/>
	<rect x="105.4" y="241.3" width="1.6" height="10.1"/>
	<path d="M112.6,241.3h-2l-2.9,10.1h1.7l0.6-2.4h3l0.6,2.4h1.7L112.6,241.3z M110.3,247.6l1.2-5l0,0l1.1,5H110.3z"/>
</g>
</svg>
