<?xml version="1.0" encoding="utf-8"?>
<!-- Generator: Adobe Illustrator 17.1.0, SVG Export Plug-In . SVG Version: 6.00 Build 0)  -->
<!DOCTYPE svg PUBLIC "-//W3C//DTD SVG 1.1//EN" "http://www.w3.org/Graphics/SVG/1.1/DTD/svg11.dtd">
<svg version="1.1" id="Livello_1" xmlns="http://www.w3.org/2000/svg" xmlns:xlink="http://www.w3.org/1999/xlink" x="0px" y="0px"
	 viewBox="0 0 157.6 198.1" enable-background="new 0 0 157.6 198.1" xml:space="preserve">
<g>
	<path d="M79,96.8l66,0h1.3V21.1c-0.3-8.9-13.3-15-31.2-18.2C104.6,1,92.5,0.1,80.2,0C68-0.1,55.7,0.7,44.8,2.4
		C24.7,5.6,9.6,11.8,9,21.1v75.7h1.3l66,0v46.8c0.9,0.2,1.8,0.5,2.7,0.6V96.8z M11.7,21.2c0.5-7.9,14.7-13.4,33.5-16.3
		C54,3.5,63.9,2.7,73.8,2.6c2.1,0,4.3-0.1,6.4-0.1c0.4,0,0.8,0,1.2,0c11.7,0.1,23.2,1.1,33.2,2.9c16.7,3,28.8,8.3,29.1,15.8v73.1
		l-62.2,0h-7.5l-62.2,0V21.2z"/>
	<path fill="#FFFFFF" d="M73.8,2.6c-10,0.2-19.8,1-28.6,2.3c-18.9,2.9-33.1,8.4-33.5,16.3v26.3h62.2V2.6z M46.9,34.6l-2.3,5.6
		L42,34.6l-8,1l4.8-5.6L34.1,24l7.6,0.8l2.8-5.3l2.4,5.9l7.9-0.8l-4.6,5.4l4.7,5.2L46.9,34.6z"/>
	<path fill="#FFFFFF" d="M143.6,47.5V21.2c-0.3-7.5-12.4-12.8-29.1-15.8c-9.9-1.8-21.5-2.7-33.2-2.9v45H143.6z M101.1,23.8l7.6,0.8
		l2.8-5.3l2.4,5.9l7.9-0.8l-4.6,5.4l4.7,5.2l-8-0.5l-2.3,5.6l-2.7-5.6l-8,1l4.8-5.6L101.1,23.8z"/>
	<path fill="#FFFFFF" d="M73.8,54.6H11.7v39.7l62.2,0V54.6z M46.3,79.8L44,85.3l-2.7-5.6l-8,1l4.8-5.6l-4.7-6.1l7.6,0.8l2.8-5.3
		l2.4,5.9l7.8-0.8l-4.6,5.4l4.7,5.2L46.3,79.8z"/>
	<path fill="#FFFFFF" d="M81.4,94.3l62.2,0V54.6H81.4V94.3z M100.8,68.6l7.6,0.8l2.8-5.3l2.4,5.9l7.8-0.8l-4.6,5.4l4.7,5.2l-8-0.5
		l-2.3,5.6l-2.7-5.6l-8,1l4.8-5.6L100.8,68.6z"/>
	<path fill="#C4C8CB" d="M128.8,108.9c-3,19.8-14.5,31.7-27.9,36.4c-5.7,2-11.9,2.7-17.9,2.1c-6-0.6-11.8-2.4-17-5.4
		c-11.9-6.8-20.4-19.9-19.6-38.3L11.5,101c1.9,28.8,16.7,48,35.8,57.6c9.1,4.6,19.3,7.1,29.4,7.4c10.2,0.3,20.3-1.6,29.6-5.6
		c19-8.2,34.2-25.6,37.4-51.8L128.8,108.9z"/>
	<path d="M146.7,106l-1.5,0l-17.6,0.4l-1.1,0l-0.1,1.1c-2.6,19.4-13.5,30.9-26.4,35.4c-5.4,1.9-11.1,2.5-16.7,2
		c-1.4-0.1-2.8-0.3-4.2-0.6c-0.9-0.2-1.8-0.4-2.7-0.6c-3.1-0.9-6.2-2.1-9-3.8C56,133.3,47.9,120.6,49,102.6l0.1-1.2l-1.3-0.1
		l-37.6-2.9l-1.5-0.1l0.1,1.4c1.6,30.6,17.1,50.9,37.3,61.1c9.5,4.8,20,7.4,30.6,7.7c10.6,0.3,21.1-1.6,30.8-5.8
		c20.2-8.7,36.2-27.2,39.1-55.3L146.7,106z M106.3,160.4c-9.3,4-19.5,5.9-29.6,5.6c-10.1-0.3-20.3-2.7-29.4-7.4
		C28.3,149,13.5,129.8,11.5,101l34.8,2.7c-0.8,18.4,7.7,31.5,19.6,38.3c5.2,3,11,4.8,17,5.4c6,0.6,12.1-0.1,17.9-2.1
		c13.5-4.7,25-16.6,27.9-36.4l14.9-0.3C140.5,134.9,125.4,152.2,106.3,160.4z"/>
	<polygon fill="#93979E" points="54.1,69.7 46.3,70.4 43.8,64.5 41.1,69.9 33.5,69.1 38.2,75.2 33.3,80.8 41.3,79.8 44,85.3 
		46.3,79.8 54.2,80.3 49.5,75.1 	"/>
	<polygon fill="#93979E" points="54.8,24.5 46.9,25.3 44.5,19.4 41.7,24.7 34.1,24 38.9,30.1 34,35.6 42,34.6 44.6,40.2 46.9,34.6 
		54.9,35.2 50.2,29.9 	"/>
	<polygon fill="#93979E" points="108.9,34.4 111.6,40 113.9,34.4 121.9,35 117.1,29.8 121.8,24.3 113.9,25.1 111.5,19.2 108.7,24.5 
		101.1,23.8 105.8,29.9 101,35.4 	"/>
	<polygon fill="#93979E" points="108.6,79.2 111.3,84.8 113.6,79.2 121.6,79.8 116.8,74.5 121.5,69.1 113.6,69.9 111.2,64 
		108.4,69.3 100.8,68.6 105.5,74.7 100.7,80.2 	"/>
	<path fill="#ED1C24" d="M73.8,94.3h7.5V54.6h62.2v-7.1H81.4v-45c-0.4,0-0.8,0-1.2,0c-2.1,0-4.3,0-6.4,0.1v44.9H11.7v7.1h62.2V94.3z
		"/>
	<path d="M10.1,196.6c0-1-0.1-2.3-0.1-3.4c-0.1-2.3-1-3.3-2.6-3.4v0c1.8-0.3,2.8-1.9,2.8-4.1c0-3.2-1.9-4.3-4.3-4.3H0v16.8h2.7v-7.3
		h2.2c1.8,0,2.4,0.8,2.4,2.6c0,1.2,0,2.2,0.1,3.2c0.1,0.7,0.2,1.2,0.4,1.5h3C10.6,197.9,10.2,197.5,10.1,196.6z M4.8,188.8H2.7v-5.5
		H5c1.8,0,2.5,0.9,2.5,2.7C7.5,187.8,6.5,188.8,4.8,188.8z"/>
	<polygon points="15.5,190.5 21.5,190.5 21.5,188.2 15.5,188.2 15.5,183.6 21.9,183.6 21.9,181.3 12.8,181.3 12.8,198.1 22.1,198.1 
		22.1,195.8 15.5,195.8 	"/>
	<path d="M29.3,191.3h2.8c0,3.7-0.8,5.1-2.8,5.1c-1.8,0-2.7-1.4-2.7-6.8c0-5.4,1-6.6,2.9-6.6c1.8,0,2.3,1.5,2.3,2.7v0.4h2.5v-0.3
		c0-1.5-0.7-4.8-4.9-4.8c-3.9,0-5.6,2.7-5.6,8.7c0,6,1.3,8.7,5,8.7c2,0,2.9-0.7,3.7-2.3h0v2h2v-8.8h-5.4V191.3z"/>
	<rect x="37" y="181.3" width="2.7" height="16.8"/>
	<path d="M47.7,181c-3.9,0-5.5,2.7-5.5,8.7c0,6,1.7,8.7,5.5,8.7c3.9,0,5.5-2.7,5.5-8.7C53.2,183.7,51.5,181,47.7,181z M47.7,196.4
		c-1.6,0-2.9-1-2.9-6.8c0-5.6,1.3-6.6,2.9-6.6c1.6,0,2.9,1,2.9,6.6C50.5,195.4,49.3,196.4,47.7,196.4z"/>
	<polygon points="63.9,193.8 63.9,193.8 59,181.3 55.8,181.3 55.8,198.1 58.3,198.1 58.3,185.3 58.3,185.3 63.2,198.1 66.5,198.1 
		66.5,181.3 63.9,181.3 	"/>
	<polygon points="72.1,190.5 78.1,190.5 78.1,188.2 72.1,188.2 72.1,183.6 78.5,183.6 78.5,181.3 69.4,181.3 69.4,198.1 78.7,198.1 
		78.7,195.8 72.1,195.8 	"/>
	<polygon points="89.1,181.3 86.4,181.3 86.4,198.1 95.6,198.1 95.6,195.8 89.1,195.8 	"/>
	<rect x="97.3" y="181.3" width="2.7" height="16.8"/>
	<path d="M107.7,191.3h2.8c0,3.7-0.8,5.1-2.8,5.1c-1.8,0-2.7-1.4-2.7-6.8c0-5.4,1-6.6,2.9-6.6c1.8,0,2.3,1.5,2.3,2.7v0.4h2.5v-0.3
		c0-1.5-0.7-4.8-4.9-4.8c-3.9,0-5.6,2.7-5.6,8.7c0,6,1.3,8.7,5,8.7c2,0,2.9-0.7,3.7-2.3h0v2h2v-8.8h-5.4V191.3z"/>
	<path d="M123,193.3c0,2.1-0.8,3-2.4,3c-1.6,0-2.5-0.9-2.5-3v-12h-2.7v11.8c0,3.9,1.9,5.3,5.1,5.3c3.2,0,5.1-1.4,5.1-5.3v-11.8H123
		V193.3z"/>
	<path d="M138.5,196.6c0-1-0.1-2.3-0.1-3.4c-0.1-2.3-1-3.3-2.6-3.4v0c1.8-0.3,2.8-1.9,2.8-4.1c0-3.2-1.9-4.3-4.3-4.3h-5.9v16.8h2.7
		v-7.3h2.2c1.8,0,2.4,0.8,2.4,2.6c0,1.2,0,2.2,0.1,3.2c0.1,0.7,0.2,1.2,0.4,1.5h3C138.9,197.9,138.5,197.5,138.5,196.6z
		 M133.2,188.8h-2.1v-5.5h2.3c1.8,0,2.5,0.9,2.5,2.7C135.9,187.8,134.9,188.8,133.2,188.8z"/>
	<rect x="141.1" y="181.3" width="2.7" height="16.8"/>
	<path d="M153.2,181.3h-3.4l-4.8,16.8h2.8l1.1-4.1h4.9l1,4.1h2.8L153.2,181.3z M149.4,191.8l2-8.3h0l1.9,8.3H149.4z"/>
</g>
<rect x="-34.6" y="-14.2" fill="none" width="226.8" height="226.8"/>
</svg>
