<?xml version="1.0" encoding="UTF-8" standalone="no"?>
<!-- Created with Inkscape (http://www.inkscape.org/) -->

<svg
   xmlns:dc="http://purl.org/dc/elements/1.1/"
   xmlns:cc="http://creativecommons.org/ns#"
   xmlns:rdf="http://www.w3.org/1999/02/22-rdf-syntax-ns#"
   xmlns:svg="http://www.w3.org/2000/svg"
   xmlns="http://www.w3.org/2000/svg"
   xmlns:sodipodi="http://sodipodi.sourceforge.net/DTD/sodipodi-0.dtd"
   xmlns:inkscape="http://www.inkscape.org/namespaces/inkscape"
   width="512"
   height="512"
   viewBox="0 0 512.00001 512.00001"
   id="svg2"
   version="1.1"
   inkscape:version="0.91 r13725"
   sodipodi:docname="radar_10m.svg"
   inkscape:export-filename="C:\Users\d.fiori\Downloads\omirl\temperaturaOff.png"
   inkscape:export-xdpi="5.6300001"
   inkscape:export-ydpi="5.6300001">
  <defs
     id="defs4" />
  <sodipodi:namedview
     id="base"
     pagecolor="#ffffff"
     bordercolor="#666666"
     borderopacity="1.0"
     inkscape:pageopacity="0.0"
     inkscape:pageshadow="2"
     inkscape:zoom="0.98994949"
     inkscape:cx="323.32754"
     inkscape:cy="276.68667"
     inkscape:document-units="px"
     inkscape:current-layer="layer1"
     showgrid="false"
     showguides="true"
     inkscape:guide-bbox="true"
     units="px"
     inkscape:window-width="1280"
     inkscape:window-height="961"
     inkscape:window-x="1272"
     inkscape:window-y="-8"
     inkscape:window-maximized="1">
    <sodipodi:guide
       position="229.55357,849.46431"
       orientation="0,1"
       id="guide4170" />
    <sodipodi:guide
       position="230.58036,829.10716"
       orientation="0,1"
       id="guide4172" />
    <inkscape:grid
       type="xygrid"
       id="grid4246" />
    <sodipodi:guide
       position="256.02679,751.69645"
       orientation="1,0"
       id="guide4248" />
    <sodipodi:guide
       position="-13.131983,256"
       orientation="0,1"
       id="guide4284"
       inkscape:label=""
       inkscape:color="rgb(0,0,255)" />
  </sodipodi:namedview>
  <metadata
     id="metadata7">
    <rdf:RDF>
      <cc:Work
         rdf:about="">
        <dc:format>image/svg+xml</dc:format>
        <dc:type
           rdf:resource="http://purl.org/dc/dcmitype/StillImage" />
        <dc:title></dc:title>
      </cc:Work>
    </rdf:RDF>
  </metadata>
  <g
     inkscape:label="Livello 1"
     inkscape:groupmode="layer"
     id="layer1"
     transform="translate(0,-540.36216)">
    <path
       style="fill:#000000"
       d="m 256.82215,610.56206 c -0.23138,0.007 -0.46396,0.0111 -0.69534,0.0238 l 37.01153,10.6608 c 24.47342,7.0583 44.49712,19.03445 44.49712,26.60561 0,7.57114 11.7489,18.92018 23.7318,28.57546 11.59573,9.34333 14.28003,11.61541 19.22918,17.65657 6.47782,7.90709 5.42687,10.43298 -0.0238,15.44704 -8.88079,8.16492 -15.03563,2.96397 -28.10178,-9.46448 -17.94716,-17.07113 -75.43589,-43.98182 -95.01463,-47.56768 l -2.74056,4.55917 1.91693,2.09644 c 17.94718,7.64343 57.27409,30.93355 57.27409,38.66406 0,7.7304 8.12968,20.83001 18.07686,29.08535 14.13431,11.7304 6.99852,15.08073 2.59757,18.53928 -4.01673,3.15658 -8.31479,-1.96404 -25.19368,-13.02354 -16.67278,-10.92446 -38.95873,-19.60457 -48.39716,-19.10022 -10.88124,0.58144 -7.28195,9.27955 5.60015,9.90251 10.65973,0.51498 48.56337,35.80937 37.38047,44.40479 -14.34861,11.02864 -5.58113,4.17835 -20.46726,16.06074 -29.40607,23.47229 -74.04891,6.18153 -52.65825,31.9557 8.12446,9.78937 21.01356,17.79885 28.64499,17.79885 41.2772,33.24849 92.57361,76.50967 123.03918,101.20783 36.90989,-42.55564 60.75864,-85.19231 60.83589,-137.54715 0.004,-103.02461 -84.02073,-194.1195 -187.04535,-194.11642 z"
       id="path5348"
       inkscape:connector-curvature="0"
       sodipodi:nodetypes="cccssssscccssssscsssccccc" />
    <circle
       style="fill:none;fill-opacity:1;stroke:#000000;stroke-width:22.43921661;stroke-miterlimit:4;stroke-dasharray:none;stroke-opacity:1"
       id="path5338"
       cx="256.07364"
       cy="796.35162"
       r="235.87881" />
    <circle
       style="fill:#000000;fill-opacity:1;stroke:none;stroke-width:2;stroke-miterlimit:4;stroke-dasharray:none;stroke-opacity:1"
       id="path5340"
       cx="256.17032"
       cy="797.19824"
       r="38.302956" />
  </g>
</svg>
