<?xml version="1.0" encoding="UTF-8" standalone="no"?>
<!-- Created with Inkscape (http://www.inkscape.org/) -->

<svg
   xmlns:dc="http://purl.org/dc/elements/1.1/"
   xmlns:cc="http://creativecommons.org/ns#"
   xmlns:rdf="http://www.w3.org/1999/02/22-rdf-syntax-ns#"
   xmlns:svg="http://www.w3.org/2000/svg"
   xmlns="http://www.w3.org/2000/svg"
   xmlns:sodipodi="http://sodipodi.sourceforge.net/DTD/sodipodi-0.dtd"
   xmlns:inkscape="http://www.inkscape.org/namespaces/inkscape"
   width="512"
   height="512"
   viewBox="0 0 512.00001 512.00001"
   id="svg2"
   version="1.1"
   inkscape:version="0.91 r13725"
   sodipodi:docname="temp_500hPA_final.svg"
   inkscape:export-filename="C:\Users\d.fiori\Downloads\omirl\temperaturaOff.png"
   inkscape:export-xdpi="5.6300001"
   inkscape:export-ydpi="5.6300001">
  <defs
     id="defs4" />
  <sodipodi:namedview
     id="base"
     pagecolor="#ffffff"
     bordercolor="#666666"
     borderopacity="1.0"
     inkscape:pageopacity="0.0"
     inkscape:pageshadow="2"
     inkscape:zoom="0.98994949"
     inkscape:cx="95.28738"
     inkscape:cy="221.83604"
     inkscape:document-units="px"
     inkscape:current-layer="layer1"
     showgrid="false"
     showguides="true"
     inkscape:guide-bbox="true"
     units="px"
     inkscape:window-width="1280"
     inkscape:window-height="961"
     inkscape:window-x="1272"
     inkscape:window-y="-8"
     inkscape:window-maximized="1">
    <sodipodi:guide
       position="229.55357,849.46431"
       orientation="0,1"
       id="guide4170" />
    <sodipodi:guide
       position="230.58036,829.10716"
       orientation="0,1"
       id="guide4172" />
    <inkscape:grid
       type="xygrid"
       id="grid4246" />
    <sodipodi:guide
       position="256.02679,751.69645"
       orientation="1,0"
       id="guide4248" />
    <sodipodi:guide
       position="-13.131983,256"
       orientation="0,1"
       id="guide4284"
       inkscape:label=""
       inkscape:color="rgb(0,0,255)" />
  </sodipodi:namedview>
  <metadata
     id="metadata7">
    <rdf:RDF>
      <cc:Work
         rdf:about="">
        <dc:format>image/svg+xml</dc:format>
        <dc:type
           rdf:resource="http://purl.org/dc/dcmitype/StillImage" />
        <dc:title></dc:title>
      </cc:Work>
    </rdf:RDF>
  </metadata>
  <g
     inkscape:label="Livello 1"
     inkscape:groupmode="layer"
     id="layer1"
     transform="translate(0,-540.36216)">
    <path
       style="fill:none;fill-rule:evenodd;stroke:#000000;stroke-width:16.40411949;stroke-linecap:butt;stroke-linejoin:miter;stroke-miterlimit:4;stroke-dasharray:none;stroke-opacity:1"
       d="m 231.3347,553.36068 c -24.60309,-0.005 -44.54893,17.96774 -44.54488,40.1354 0.008,1.17537 0.0864,139.49653 0.20827,153.81613 a 68.668026,61.870579 0 0 0 -24.33507,47.17903 68.668026,61.870579 0 0 0 68.67136,61.87358 68.668026,61.870579 0 0 0 68.65535,-61.87358 68.668026,61.870579 0 0 0 -24.31908,-47.23687 c 0.12266,-13.35614 0.18665,-152.57888 0.19269,-153.75829 0.005,-22.16196 -19.93192,-40.13103 -44.52881,-40.1354 z"
       id="path3351"
       inkscape:connector-curvature="0" />
    <rect
       style="fill:none"
       id="rect4174"
       width="103.65225"
       height="135.57915"
       x="184.26154"
       y="585.87146" />
    <path
       style="fill:#000000;fill-opacity:1;stroke:none;stroke-width:1.37219107;stroke-miterlimit:4;stroke-dasharray:none;stroke-opacity:1"
       d="m 224.65773,638.00169 0,131.48713 a 31.759664,28.615775 0 0 0 -23.08741,27.52306 31.759664,28.615775 0 0 0 31.76198,28.61787 31.759664,28.615775 0 0 0 31.76199,-28.61787 31.759664,28.615775 0 0 0 -23.47547,-27.58387 l 0,-131.42632 -16.96109,0 z"
       id="path4204"
       inkscape:connector-curvature="0" />
    <rect
       style="fill:#000000;fill-opacity:1;stroke:none;stroke-width:1;stroke-miterlimit:4;stroke-dasharray:none;stroke-opacity:1"
       id="rect4209"
       width="53.726612"
       height="16.13607"
       x="302.09787"
       y="579.48151" />
    <rect
       style="fill:#000000;fill-opacity:1;stroke:none;stroke-width:1;stroke-miterlimit:4;stroke-dasharray:none;stroke-opacity:1"
       id="rect4209-8"
       width="53.726612"
       height="16.13607"
       x="303.05695"
       y="624.41455" />
    <rect
       style="fill:#000000;fill-opacity:1;stroke:none;stroke-width:1;stroke-miterlimit:4;stroke-dasharray:none;stroke-opacity:1"
       id="rect4209-1"
       width="53.726612"
       height="16.13607"
       x="302.03195"
       y="670.76282" />
    <rect
       style="fill:#000000;fill-opacity:1;stroke:none;stroke-width:1;stroke-miterlimit:4;stroke-dasharray:none;stroke-opacity:1"
       id="rect4209-8-4"
       width="53.726612"
       height="16.13607"
       x="302.99106"
       y="715.69586" />
    <g
       transform="translate(-15.152288,511.06774)"
       style="font-style:normal;font-variant:normal;font-weight:normal;font-stretch:normal;font-size:131.25px;line-height:125%;font-family:Arial;-inkscape-font-specification:Arial;letter-spacing:0px;word-spacing:0px;fill:#000000;fill-opacity:1;stroke:none;stroke-width:1px;stroke-linecap:butt;stroke-linejoin:miter;stroke-opacity:1"
       id="flowRoot4250">
      <path
         d="m 38.965825,468.92388 13.265991,-1.12305 q 1.473999,9.68628 6.808472,14.59961 5.404663,4.84314 12.985229,4.84314 9.124756,0 15.441895,-6.87866 6.317139,-6.87866 6.317139,-18.24951 0,-10.80933 -6.106568,-17.05628 -6.036377,-6.24695 -15.863037,-6.24695 -6.106567,0 -11.019897,2.80762 -4.91333,2.73743 -7.720948,7.15942 l -11.862182,-1.54418 9.967041,-52.8534 51.16882,0 0,12.07276 -41.061398,0 -5.545044,27.65502 q 9.265136,-6.45751 19.442749,-6.45751 13.476562,0 22.741699,9.33532 9.265134,9.33533 9.265134,24.00513 0,13.96789 -8.142087,24.14551 -9.896851,12.49389 -27.023316,12.49389 -14.038085,0 -22.95227,-7.86132 -8.843994,-7.86133 -10.107422,-20.84656 z"
         style="font-size:143.75px"
         id="path5315" />
      <path
         d="m 122.98291,445.12932 q 0,-18.24951 3.7201,-29.3396 3.79028,-11.16028 11.16028,-17.19665 7.44018,-6.03638 18.67065,-6.03638 8.28247,0 14.52942,3.36914 6.24695,3.29895 10.31799,9.61609 4.07105,6.24695 6.38733,15.30151 2.31629,8.98438 2.31629,24.28589 0,18.10913 -3.7201,29.26941 -3.72009,11.09009 -11.16028,17.19666 -7.36999,6.03637 -18.67065,6.03637 -14.88037,0 -23.37341,-10.66894 -10.17762,-12.84485 -10.17762,-41.8335 z m 12.98523,0 q 0,25.33875 5.896,33.7616 5.96619,8.35266 14.6698,8.35266 8.70361,0 14.59961,-8.42285 5.96619,-8.42285 5.96619,-33.69141 0,-25.40893 -5.96619,-33.76159 -5.896,-8.35267 -14.73999,-8.35267 -8.70361,0 -13.89771,7.37 -6.52771,9.40552 -6.52771,34.74426 z"
         style="font-size:143.75px"
         id="path5317" />
      <path
         d="m 207,445.12932 q 0,-18.24951 3.7201,-29.3396 3.79028,-11.16028 11.16028,-17.19665 7.44018,-6.03638 18.67065,-6.03638 8.28247,0 14.52942,3.36914 6.24695,3.29895 10.31799,9.61609 4.07105,6.24695 6.38733,15.30151 2.31629,8.98438 2.31629,24.28589 0,18.10913 -3.7201,29.26941 -3.72009,11.09009 -11.16028,17.19666 -7.36999,6.03637 -18.67065,6.03637 -14.88037,0 -23.37341,-10.66894 Q 207,474.11797 207,445.12932 Z m 12.98523,0 q 0,25.33875 5.896,33.7616 5.96619,8.35266 14.6698,8.35266 8.70361,0 14.59961,-8.42285 5.96619,-8.42285 5.96619,-33.69141 0,-25.40893 -5.96619,-33.76159 -5.896,-8.35267 -14.73999,-8.35267 -8.70361,0 -13.89771,7.37 -6.52771,9.40552 -6.52771,34.74426 z"
         style="letter-spacing:20.01000023px"
         id="path5319" />
      <path
         d="m 308.47669,495.877 0,-80.52978 9.88769,0 0,28.89404 q 6.92139,-8.02002 17.46827,-8.02002 6.48193,0 11.26098,2.58179 4.77906,2.52685 6.81153,7.03125 2.0874,4.50439 2.0874,13.07373 l 0,36.96899 -9.8877,0 0,-36.96899 q 0,-7.41577 -3.24096,-10.7666 -3.18604,-3.40576 -9.06372,-3.40576 -4.39454,0 -8.29468,2.30712 -3.84522,2.2522 -5.49317,6.15235 -1.64795,3.90014 -1.64795,10.7666 l 0,31.91528 -9.88769,0 z"
         style="font-size:112.5px"
         id="path5321" />
      <path
         d="m 376.36219,495.877 0,-80.52978 30.37719,0 q 8.02002,0 12.24976,0.76904 5.93262,0.98877 9.94263,3.79028 4.01001,2.74659 6.427,7.74537 2.47192,4.99877 2.47192,10.98632 0,10.27222 -6.53686,17.41333 -6.53687,7.08619 -23.62061,7.08619 l -20.65429,0 0,32.73925 -10.65674,0 z m 10.65674,-42.24243 20.81909,0 q 10.32715,0 14.66675,-3.84521 4.3396,-3.84522 4.3396,-10.82154 0,-5.05371 -2.58179,-8.62426 -2.52686,-3.62549 -6.70166,-4.77906 -2.69165,-0.71411 -9.94263,-0.71411 l -20.59936,0 0,28.78418 z"
         style="font-size:112.5px"
         id="path5323" />
      <path
         d="m 492.31287,488.68096 q -5.49316,4.66919 -10.60181,6.59179 -5.05371,1.92261 -10.87646,1.92261 -9.61304,0 -14.77661,-4.66919 -5.16358,-4.72412 -5.16358,-12.03003 0,-4.28466 1.92261,-7.80029 1.97754,-3.57056 5.10864,-5.71289 3.18604,-2.14233 7.14112,-3.24097 2.91137,-0.76904 8.78906,-1.48315 11.9751,-1.42822 17.63306,-3.40576 0.0549,-2.03247 0.0549,-2.58179 0,-6.04248 -2.80152,-8.5144 -3.79028,-3.35083 -11.26098,-3.35083 -6.97632,0 -10.32715,2.47192 -3.2959,2.41699 -4.88892,8.62427 l -9.66797,-1.31836 q 1.31836,-6.20728 4.3396,-9.99756 3.02124,-3.84522 8.73414,-5.87769 5.71289,-2.0874 13.23852,-2.0874 7.4707,0 12.13989,1.75781 4.66919,1.75782 6.86646,4.44947 2.19726,2.63672 3.07617,6.70166 0.49438,2.52685 0.49438,9.11865 l 0,13.18359 q 0,13.78784 0.60425,17.46826 0.65918,3.62549 2.52686,6.97632 l -10.32715,0 q -1.53809,-3.07617 -1.97754,-7.19604 z m -0.82397,-22.08252 q -5.3833,2.19726 -16.14991,3.73535 -6.09741,0.87891 -8.62426,1.97754 -2.52686,1.09863 -3.90015,3.24097 -1.37329,2.0874 -1.37329,4.66919 0,3.95507 2.96631,6.59179 3.02124,2.63672 8.78906,2.63672 5.71289,0 10.16235,-2.47192 4.44947,-2.52686 6.53687,-6.86646 1.59302,-3.35083 1.59302,-9.88769 l 0,-3.62549 z"
         style="font-size:112.5px"
         id="path5325" />
    </g>
  </g>
</svg>
